<?xml version="1.0" standalone="no"?>
<!DOCTYPE svg PUBLIC "-//W3C//DTD SVG 20010904//EN"
 "http://www.w3.org/TR/2001/REC-SVG-20010904/DTD/svg10.dtd">
<svg version="1.0" xmlns="http://www.w3.org/2000/svg"
 width="256.000000pt" height="256.000000pt" viewBox="0 0 256.000000 256.000000"
 preserveAspectRatio="xMidYMid meet">

<g transform="translate(0.000000,256.000000) scale(0.100000,-0.100000)"
fill="#000000" stroke="none">
<path d="M1775 1920 c-131 -23 -256 -61 -343 -101 -61 -30 -63 -30 -143 -18
-115 17 -344 7 -441 -19 -173 -46 -322 -129 -450 -250 -71 -68 -98 -106 -98
-141 0 -57 308 -247 503 -310 39 -13 45 -22 25 -39 -8 -5 -140 -13 -313 -17
-165 -4 -308 -11 -317 -16 -11 -6 -18 -21 -18 -38 0 -16 43 -129 95 -251 52
-122 95 -226 95 -231 0 -5 -51 -9 -114 -9 -128 0 -126 2 -126 -88 0 -53 14
-82 40 -82 19 0 20 -8 20 -155 0 -97 4 -155 10 -155 6 0 10 58 10 155 l0 155
1175 0 c773 0 1175 3 1175 10 0 7 -412 11 -1202 12 l-1203 3 0 60 0 60 1203 3
c790 1 1202 5 1202 12 0 6 -52 10 -135 10 -74 0 -135 2 -135 5 0 3 6 21 14 39
8 19 22 69 31 112 20 86 17 247 -5 340 -12 49 -12 53 20 118 28 56 34 79 33
129 -1 73 -17 116 -83 217 -66 101 -77 150 -57 238 36 150 38 164 27 198 -16
48 -50 57 -230 60 -121 3 -179 -1 -265 -16z m415 -11 c75 -16 78 -30 45 -181
-27 -120 -27 -125 -11 -179 8 -31 31 -79 50 -106 94 -136 112 -226 66 -330
-21 -50 -40 -69 -40 -40 0 21 -67 153 -108 214 -58 86 -126 157 -203 215 -38
28 -68 52 -67 54 2 1 41 -2 86 -8 77 -9 104 -7 90 7 -3 4 -58 12 -122 18 -169
19 -168 33 3 42 88 4 141 11 141 17 0 8 -51 9 -164 4 l-164 -7 -76 38 c-42 20
-76 40 -76 44 0 3 36 14 80 24 81 19 112 35 67 35 -14 0 -61 -11 -106 -24
l-82 -23 -95 30 c-54 17 -91 34 -86 39 28 28 297 103 437 121 68 9 288 6 335
-4z m-991 -406 c24 -86 6 -161 -53 -220 -88 -88 -202 -57 -244 66 -22 62 -14
141 14 141 10 0 14 -15 14 -57 0 -91 54 -173 114 -173 20 0 73 49 80 75 5 17
0 23 -26 30 -27 8 -34 16 -36 41 -2 25 3 37 25 53 23 19 25 25 15 41 -7 11
-12 22 -12 24 0 7 31 14 67 15 29 1 33 -3 42 -36z m-324 -43 c-20 -148 86
-272 206 -240 78 21 149 124 149 217 0 28 2 27 158 -23 225 -73 413 -184 558
-329 177 -178 233 -363 163 -540 l-24 -60 -283 -3 c-270 -2 -285 -1 -312 18
-37 27 -162 64 -291 88 -59 11 -131 31 -160 44 -53 24 -55 27 -81 101 l-27 76
45 28 c24 15 44 31 44 36 0 12 -9 8 -48 -18 -20 -14 -40 -25 -43 -25 -4 0 -12
15 -19 33 -10 29 -9 34 12 49 13 9 70 52 128 95 58 42 111 76 118 75 21 -5 13
15 -13 32 -24 16 -25 16 -25 -4 0 -29 -22 -34 -93 -21 -207 39 -492 171 -641
298 -45 38 -61 36 -25 -3 95 -103 433 -266 632 -306 37 -8 67 -18 65 -23 -11
-35 -264 33 -435 117 -105 51 -226 128 -275 176 -64 61 -48 90 63 117 118 29
227 43 347 44 l114 1 -7 -50z m-52 -452 c12 -9 207 -503 207 -526 0 -1 -143
-1 -317 0 l-317 3 -103 239 c-79 187 -100 243 -92 258 8 15 23 18 92 19 72 1
378 12 478 17 19 1 43 -4 52 -10z m432 -451 c113 -23 225 -58 225 -72 0 -3
-18 -5 -40 -5 -29 0 -40 4 -40 15 0 12 -29 15 -181 17 l-181 3 -19 50 c-10 28
-19 53 -19 56 0 4 28 -4 63 -16 34 -13 121 -34 192 -48z m125 -67 c0 -6 -62
-10 -165 -10 -103 0 -165 4 -165 10 0 6 62 10 165 10 103 0 165 -4 165 -10z"/>
<path d="M1475 1140 c17 -34 20 -97 5 -136 -6 -15 -27 -42 -46 -61 -23 -22
-30 -33 -20 -33 11 0 16 -10 16 -32 0 -49 -11 -59 -89 -83 -82 -26 -114 -45
-137 -80 -16 -24 -15 -27 2 -47 53 -59 238 -88 342 -54 156 52 163 226 16 386
-43 46 -54 64 -54 92 0 34 -23 78 -41 78 -5 0 -3 -13 6 -30z"/>
</g>
</svg>
