<?xml version="1.0" encoding="iso-8859-1"?>
<!-- Generator: Adobe Illustrator 18.0.0, SVG Export Plug-In . SVG Version: 6.00 Build 0)  -->
<!DOCTYPE svg PUBLIC "-//W3C//DTD SVG 1.1//EN" "http://www.w3.org/Graphics/SVG/1.1/DTD/svg11.dtd">
<svg version="1.1" id="Capa_1" xmlns="http://www.w3.org/2000/svg" xmlns:xlink="http://www.w3.org/1999/xlink" x="0px" y="0px"
	 viewBox="0 0 423.469 423.469" style="enable-background:new 0 0 423.469 423.469;" xml:space="preserve">
<path d="M422.197,211.735l-38.408-66.526c-1.697-2.939-4.833-4.75-8.228-4.75c-3.394,0-6.53,1.811-8.228,4.75l-38.409,66.526
	c-1.696,2.939-1.696,6.561,0,9.5c1.697,2.939,4.833,4.75,8.228,4.75h9.465c-3.315,34.18-18.505,65.846-43.376,90.024
	c-7.246,7.044-15.11,13.238-23.459,18.55v-11.706c0-29.462-16.446-55.151-40.638-68.38c24.193-13.228,40.641-38.919,40.641-68.381
	c0-42.943-34.937-77.88-77.88-77.88s-77.88,34.937-77.88,77.88c0,29.445,16.428,55.121,40.597,68.356
	c-6.454,3.529-12.445,7.99-17.787,13.337c-14.711,14.711-22.813,34.268-22.813,55.068v11.619
	c-40.56-25.828-67.523-71.192-67.523-122.738c0-80.177,65.229-145.406,145.407-145.406c38.84,0,75.354,15.125,102.818,42.589
	c3.711,3.71,9.725,3.71,13.436,0c3.71-3.71,3.71-9.725,0-13.435c-31.053-31.052-72.34-48.154-116.254-48.154
	c-90.654,0-164.407,73.752-164.407,164.406s73.752,164.407,164.407,164.407c43.036,0,83.729-16.517,114.58-46.509
	c30.786-29.928,48.452-70.009,49.744-112.861c0.077-2.568-0.889-5.058-2.678-6.902c-1.789-1.844-4.249-2.885-6.818-2.885h-3.126
	l21.954-38.026l21.954,38.026h-3.266c-5.157,0-9.372,4.114-9.497,9.27c-1.161,47.899-20.697,92.75-55.009,126.289
	c-34.369,33.594-79.77,52.095-127.839,52.095C101.051,394.639,19,312.589,19,211.734S101.051,28.83,201.905,28.83
	c48.855,0,94.787,19.025,129.333,53.572c3.71,3.709,9.724,3.71,13.436,0c3.71-3.71,3.71-9.725,0-13.435
	C306.539,30.832,255.835,9.83,201.905,9.83C90.574,9.83,0,100.404,0,211.734s90.574,201.905,201.905,201.905
	c53.063,0,103.18-20.424,141.12-57.508c35.653-34.851,56.854-80.768,60.288-130.146h10.656c3.394,0,6.53-1.811,8.228-4.75
	C423.893,218.296,423.893,214.675,422.197,211.735z M143.025,186.092c0-32.467,26.414-58.88,58.88-58.88
	c32.467,0,58.88,26.413,58.88,58.88s-26.413,58.88-58.88,58.88C169.438,244.972,143.025,218.559,143.025,186.092z M143.021,344.672
	v-21.818c0-15.725,6.125-30.51,17.25-41.635c11.112-11.121,25.896-17.245,41.63-17.245c32.467,0,58.88,26.414,58.88,58.88v21.89
	c-18.322,8.118-38.294,12.398-58.877,12.398C180.956,357.141,161.032,352.681,143.021,344.672z"/>
<g>
</g>
<g>
</g>
<g>
</g>
<g>
</g>
<g>
</g>
<g>
</g>
<g>
</g>
<g>
</g>
<g>
</g>
<g>
</g>
<g>
</g>
<g>
</g>
<g>
</g>
<g>
</g>
<g>
</g>
</svg>
